<?xml version="1.0" standalone="no"?>
<!DOCTYPE svg PUBLIC "-//W3C//DTD SVG 20010904//EN"
 "http://www.w3.org/TR/2001/REC-SVG-20010904/DTD/svg10.dtd">
<svg version="1.0" xmlns="http://www.w3.org/2000/svg"
 width="2134.000000pt" height="2134.000000pt" viewBox="0 0 2134.000000 2134.000000"
 preserveAspectRatio="xMidYMid meet">
<metadata>
Created by potrace 1.11, written by Peter Selinger 2001-2013
</metadata>
<g transform="translate(0.000000,2134.000000) scale(0.100000,-0.100000)"
fill="#000000" stroke="none">
<path d="M20323 20567 c-236 -118 -388 -203 -498 -277 -68 -46 -248 -183 -304
-232 -14 -12 -49 -41 -76 -63 -28 -21 -52 -42 -55 -45 -3 -4 -41 -37 -85 -75
-229 -198 -688 -646 -925 -904 -58 -62 -118 -128 -135 -146 -38 -41 -167 -184
-231 -255 -72 -81 -187 -211 -199 -224 -6 -6 -57 -65 -115 -131 -57 -66 -107
-122 -110 -125 -14 -13 -123 -143 -176 -210 -32 -41 -61 -77 -64 -80 -3 -3
-82 -102 -175 -220 -93 -118 -174 -220 -180 -227 -5 -6 -44 -55 -85 -108 -41
-54 -120 -154 -174 -223 -209 -264 -689 -910 -808 -1087 -15 -22 -36 -49 -46
-61 -61 -65 -72 -144 -26 -196 16 -19 47 -56 69 -83 22 -27 45 -53 50 -59 6
-6 30 -36 55 -66 25 -30 47 -57 50 -60 3 -3 32 -36 65 -75 96 -114 467 -485
506 -506 19 -12 42 -31 50 -44 25 -41 452 -345 484 -345 2 0 125 -59 272 -131
263 -129 684 -299 742 -299 14 0 55 -13 90 -29 72 -32 119 -33 161 -2 13 9 54
60 90 112 36 52 92 130 125 174 126 170 498 772 855 1385 40 69 83 141 95 160
12 19 48 80 80 135 32 55 68 116 80 135 48 75 200 338 227 390 15 30 47 98 72
150 25 52 70 136 101 185 51 83 106 190 263 515 33 69 105 219 161 334 56 114
101 210 101 212 0 1 22 50 50 108 189 402 300 699 444 1186 41 140 90 305 109
365 l35 110 0 270 c0 295 -1 302 -67 433 -65 129 -190 260 -301 316 -42 21
-57 23 -237 23 l-191 0 -219 -110z"/>
<path d="M1476 18683 c-1 -1 -44 -3 -96 -4 -113 -3 -225 -32 -415 -107 -11 -5
-64 -30 -117 -56 -256 -125 -457 -302 -603 -530 -78 -123 -176 -347 -190 -437
-3 -20 -16 -47 -29 -60 l-23 -24 1 -6461 c1 -5944 2 -6463 17 -6480 26 -30 38
-58 70 -165 90 -302 319 -589 634 -791 119 -77 228 -131 279 -139 27 -5 56
-15 65 -23 9 -9 37 -17 61 -20 49 -5 146 -14 225 -21 28 -2 70 -6 95 -9 25 -2
81 -8 125 -12 67 -7 6060 -10 6297 -4 42 1 98 -3 125 -9 54 -12 4049 -10 4093
3 14 4 97 6 185 6 720 -5 6291 -2 6330 3 28 4 82 14 120 23 39 8 81 17 95 20
13 3 79 23 145 44 511 167 834 512 983 1050 12 41 23 88 26 104 3 16 10 52 15
80 6 28 13 65 16 81 5 26 6 9555 1 9820 -1 99 -2 102 -36 97 -5 -1 -17 -16
-25 -33 -9 -16 -31 -47 -49 -67 -18 -20 -41 -53 -52 -72 -10 -19 -21 -37 -24
-40 -3 -3 -30 -45 -60 -95 -64 -106 -260 -402 -373 -565 -157 -225 -562 -758
-648 -853 -9 -10 -29 -43 -45 -75 l-29 -57 -1 -2940 c0 -2869 -1 -2942 -19
-2994 -26 -70 -72 -123 -137 -154 -64 -31 -113 -38 -238 -37 -52 0 -3830 2
-8395 3 -7858 3 -8303 4 -8350 20 -27 10 -59 25 -70 35 -47 40 -87 119 -102
202 -8 44 -9 10065 -1 10140 7 69 41 150 76 182 28 26 89 53 144 64 18 4 3242
7 7165 8 l7132 1 36 35 c21 19 55 62 78 95 163 240 428 581 672 865 115 134
234 287 267 345 4 7 -2569 10 -7719 10 -4248 0 -7726 -1 -7727 -2z m8584
-12957 c207 -19 315 -63 417 -168 32 -33 76 -79 98 -101 44 -46 112 -199 138
-316 15 -62 17 -237 4 -290 -62 -247 -243 -449 -474 -529 -84 -29 -114 -34
-213 -37 -107 -2 -186 15 -325 71 -114 46 -125 54 -263 193 -106 108 -152 244
-157 474 -4 163 43 311 139 435 41 54 58 71 141 141 36 30 144 83 215 105 51
16 182 35 205 30 6 -2 39 -5 75 -8z"/>
<path d="M5088 16015 c-2 -1 -37 -5 -78 -8 -235 -19 -317 -102 -339 -345 -9
-100 -7 -2030 2 -2080 11 -60 80 -142 164 -195 88 -56 -172 -52 4054 -50 2147
1 3996 3 4109 6 232 5 273 13 401 78 104 52 219 92 336 118 141 31 218 77 250
151 8 19 17 78 19 130 5 91 40 247 120 532 49 177 156 448 226 578 58 106 68
126 92 190 22 60 75 175 96 210 5 8 33 53 62 100 44 73 89 149 223 385 13 22
41 71 63 110 23 38 40 71 38 72 -1 2 -18 6 -37 9 -31 6 -9794 15 -9801 9z"/>
<path d="M15291 14886 c-124 -211 -227 -449 -346 -801 -29 -88 -56 -173 -59
-190 -8 -51 -16 -88 -28 -130 -19 -75 -21 -93 -33 -295 -3 -58 -8 -139 -10
-180 -3 -41 -7 -148 -10 -238 -6 -225 -10 -229 -205 -237 -63 -3 -126 -7 -140
-10 -14 -2 -56 -7 -95 -11 -38 -3 -72 -8 -75 -9 -3 -2 -26 -6 -50 -10 -25 -3
-65 -11 -90 -17 -25 -5 -56 -12 -70 -14 -176 -32 -538 -165 -667 -246 -252
-158 -488 -392 -674 -668 -36 -52 -73 -115 -84 -140 -10 -25 -29 -70 -43 -100
-36 -83 -104 -244 -106 -255 -2 -5 -6 -28 -11 -50 -4 -22 -10 -49 -12 -60 -2
-11 -6 -29 -7 -40 -2 -11 -8 -47 -15 -80 -6 -33 -13 -76 -15 -95 -3 -19 -7
-51 -10 -70 -28 -192 -29 -440 -1 -625 19 -125 23 -203 21 -420 -2 -203 -5
-245 -19 -272 -9 -18 -17 -41 -17 -51 0 -24 -36 -167 -53 -207 -88 -217 -243
-398 -508 -597 -140 -105 -195 -193 -185 -293 14 -137 71 -182 371 -297 147
-56 227 -81 268 -84 32 -2 70 -12 84 -21 30 -20 22 -18 137 -28 50 -4 97 -8
105 -10 9 -1 61 -6 116 -10 55 -4 116 -10 135 -12 19 -2 98 -5 175 -6 132 -3
152 0 370 44 388 79 483 107 777 232 216 90 399 197 638 371 52 38 209 163
220 175 3 3 39 35 80 71 142 124 407 404 485 514 11 16 25 33 31 40 55 59 292
428 334 518 23 52 127 325 147 388 16 48 50 182 58 228 2 15 9 41 14 59 5 17
7 33 5 36 -3 2 0 24 5 48 5 24 13 76 17 114 4 39 8 84 10 100 5 47 5 172 -1
255 -3 48 -28 156 -69 301 -59 213 -67 232 -121 315 -31 48 -59 98 -61 110 -5
28 42 69 94 83 20 6 118 42 217 81 99 39 185 73 190 74 40 12 186 100 400 241
121 80 173 116 304 212 131 96 291 236 459 402 59 58 120 116 136 128 21 16
29 30 28 52 -1 36 -29 71 -58 71 -28 0 -131 36 -162 56 -14 9 -57 24 -96 34
-79 19 -237 80 -302 116 -23 13 -95 46 -160 74 -208 89 -237 103 -294 133 -30
16 -77 46 -105 67 -27 20 -71 46 -97 58 -26 11 -59 32 -73 46 -14 14 -46 37
-71 51 -69 39 -141 95 -224 173 -41 40 -78 72 -82 72 -10 0 -316 307 -418 419
-41 46 -84 98 -96 116 -11 19 -60 77 -108 129 -48 52 -100 109 -115 127 l-28
32 -52 -87z"/>
<path d="M5157 12683 c-1 -1 -36 -3 -77 -4 -210 -7 -321 -58 -369 -169 -46
-107 -46 -81 -46 -2165 0 -1083 3 -1997 7 -2031 8 -74 42 -167 71 -197 12 -13
46 -40 76 -62 l54 -39 116 -4 c235 -9 2589 -9 2666 -1 254 28 327 106 350 374
5 58 6 3837 1 3920 -11 178 -42 246 -141 318 l-66 48 -212 5 c-195 5 -2426 12
-2430 7z"/>
<path d="M8813 12679 c-67 -14 -119 -59 -138 -118 -4 -14 -7 -109 -7 -213 0
-201 16 -290 51 -301 155 -48 57 -45 1421 -47 696 -2 1326 -3 1400 -4 125 -1
141 1 212 27 75 28 147 74 197 127 39 41 106 150 132 215 34 85 48 107 118
180 101 107 103 133 11 136 -149 5 -3374 3 -3397 -2z"/>
<path d="M8843 11348 c-79 -13 -124 -45 -160 -109 -16 -30 -18 -58 -18 -234 0
-179 2 -204 20 -240 30 -59 88 -85 207 -91 144 -7 2605 -6 2627 1 28 9 45 59
46 144 3 122 15 237 39 379 12 73 18 136 14 138 -4 3 -43 7 -85 10 -113 8
-2644 10 -2690 2z"/>
<path d="M8820 10008 c-59 -9 -91 -28 -124 -72 -20 -26 -21 -43 -23 -267 l-3
-239 40 -42 40 -42 213 -4 c116 -3 670 -5 1229 -6 l1018 -1 42 41 c24 22 77
67 118 99 110 87 146 123 185 181 34 52 36 56 41 177 6 121 6 124 -19 153
l-25 29 -1339 0 c-736 1 -1363 -3 -1393 -7z"/>
<path d="M8770 8672 c-36 -19 -59 -42 -86 -84 -23 -37 -24 -40 -19 -242 5
-218 11 -251 56 -293 59 -54 13 -52 1119 -48 958 2 1052 4 1064 16 10 9 -27
154 -46 179 -11 15 -21 50 -25 81 -2 30 -11 74 -19 97 -17 53 -18 64 -9 169 8
79 7 82 -18 107 -14 14 -39 27 -54 27 -15 1 -458 2 -983 3 -772 1 -959 -2
-980 -12z"/>
<path d="M8059 3218 c-2 -60 -47 -230 -92 -343 -21 -55 -40 -107 -42 -115 -2
-8 -22 -55 -45 -103 -125 -264 -346 -490 -630 -645 -146 -80 -440 -201 -525
-217 -11 -2 -72 -15 -135 -28 -63 -14 -136 -27 -163 -30 -26 -3 -51 -8 -55
-10 -4 -3 -27 -8 -52 -11 -83 -11 -110 -24 -190 -93 -70 -60 -82 -75 -96 -122
-19 -65 -20 -67 -29 -158 -9 -93 -9 -117 0 -298 6 -127 11 -157 30 -195 47
-92 150 -152 300 -175 54 -8 7202 -8 7290 0 120 11 225 43 271 83 12 10 32 36
46 57 27 44 37 73 54 165 10 54 13 423 4 464 -11 49 -74 139 -133 191 -71 62
-123 85 -206 89 -39 2 -81 10 -93 18 -13 8 -57 18 -98 21 -155 12 -296 53
-485 143 -63 30 -117 54 -120 54 -3 0 -43 18 -89 40 -79 38 -183 108 -236 159
-14 13 -48 41 -77 62 -29 21 -65 55 -80 75 -15 20 -43 53 -61 72 -29 30 -105
123 -130 157 -4 6 -17 33 -30 60 -13 28 -31 64 -40 80 -55 103 -72 141 -78
173 -3 20 -23 89 -44 152 -38 110 -42 129 -56 213 l-7 37 -1938 0 -1939 0 -1
-22z"/>
</g>
</svg>
